<svg id="object" xmlns="http://www.w3.org/2000/svg" viewBox="0 0 1122 1122"><path d="M0,5.22a2.3,2.3,0,0,0,.26,0A5.25,5.25,0,0,0,5.51,0H0Z"/><path d="M37.65,5.25A5.25,5.25,0,0,0,42.9,0H32.4A5.25,5.25,0,0,0,37.65,5.25Z"/><path d="M75,5.25A5.25,5.25,0,0,0,80.29,0H69.79A5.25,5.25,0,0,0,75,5.25Z"/><path d="M112.43,5.25A5.25,5.25,0,0,0,117.68,0h-10.5A5.25,5.25,0,0,0,112.43,5.25Z"/><path d="M149.82,5.25A5.25,5.25,0,0,0,155.07,0h-10.5A5.26,5.26,0,0,0,149.82,5.25Z"/><path d="M187.22,5.25A5.25,5.25,0,0,0,192.47,0H182A5.25,5.25,0,0,0,187.22,5.25Z"/><path d="M224.61,5.25A5.25,5.25,0,0,0,229.86,0h-10.5A5.25,5.25,0,0,0,224.61,5.25Z"/><path d="M262,5.25A5.25,5.25,0,0,0,267.25,0h-10.5A5.25,5.25,0,0,0,262,5.25Z"/><path d="M299.39,5.25A5.25,5.25,0,0,0,304.64,0h-10.5A5.25,5.25,0,0,0,299.39,5.25Z"/><path d="M336.78,5.25A5.25,5.25,0,0,0,342,0h-10.5A5.25,5.25,0,0,0,336.78,5.25Z"/><path d="M374.17,5.25A5.25,5.25,0,0,0,379.42,0h-10.5A5.25,5.25,0,0,0,374.17,5.25Z"/><path d="M411.56,5.25A5.25,5.25,0,0,0,416.81,0h-10.5A5.25,5.25,0,0,0,411.56,5.25Z"/><path d="M449,5.25A5.26,5.26,0,0,0,454.21,0h-10.5A5.25,5.25,0,0,0,449,5.25Z"/><path d="M486.35,5.25A5.25,5.25,0,0,0,491.6,0H481.1A5.25,5.25,0,0,0,486.35,5.25Z"/><path d="M523.74,5.25A5.25,5.25,0,0,0,529,0h-10.5A5.25,5.25,0,0,0,523.74,5.25Z"/><path d="M561.13,5.25A5.25,5.25,0,0,0,566.38,0h-10.5A5.25,5.25,0,0,0,561.13,5.25Z"/><path d="M598.52,5.25A5.25,5.25,0,0,0,603.77,0h-10.5A5.25,5.25,0,0,0,598.52,5.25Z"/><path d="M635.91,5.25A5.25,5.25,0,0,0,641.16,0h-10.5A5.25,5.25,0,0,0,635.91,5.25Z"/><path d="M673.3,5.25A5.25,5.25,0,0,0,678.55,0h-10.5A5.25,5.25,0,0,0,673.3,5.25Z"/><path d="M710.69,5.25A5.25,5.25,0,0,0,715.94,0H705.45A5.25,5.25,0,0,0,710.69,5.25Z"/><path d="M748.09,5.25A5.25,5.25,0,0,0,753.34,0h-10.5A5.25,5.25,0,0,0,748.09,5.25Z"/><path d="M785.48,5.25A5.25,5.25,0,0,0,790.73,0h-10.5A5.25,5.25,0,0,0,785.48,5.25Z"/><path d="M822.87,5.25A5.25,5.25,0,0,0,828.12,0h-10.5A5.25,5.25,0,0,0,822.87,5.25Z"/><path d="M860.26,5.25A5.25,5.25,0,0,0,865.51,0H855A5.25,5.25,0,0,0,860.26,5.25Z"/><path d="M897.65,5.25A5.25,5.25,0,0,0,902.9,0H892.4A5.25,5.25,0,0,0,897.65,5.25Z"/><path d="M935,5.25A5.25,5.25,0,0,0,940.29,0h-10.5A5.25,5.25,0,0,0,935,5.25Z"/><path d="M972.43,5.25A5.25,5.25,0,0,0,977.68,0h-10.5A5.26,5.26,0,0,0,972.43,5.25Z"/><path d="M1009.83,5.25A5.25,5.25,0,0,0,1015.08,0h-10.5A5.25,5.25,0,0,0,1009.83,5.25Z"/><path d="M1047.22,5.25A5.25,5.25,0,0,0,1052.47,0H1042A5.25,5.25,0,0,0,1047.22,5.25Z"/><path d="M1084.61,5.25A5.25,5.25,0,0,0,1089.86,0h-10.5A5.25,5.25,0,0,0,1084.61,5.25Z"/><path d="M1122,5.25V0h-5.25A5.25,5.25,0,0,0,1122,5.25Z"/><path d="M.26,48.18,0,48.2V58.65a2.3,2.3,0,0,0,.26,0,5.25,5.25,0,0,0,0-10.5Z"/><path d="M37.65,48.18a5.25,5.25,0,1,0,5.25,5.25A5.25,5.25,0,0,0,37.65,48.18Z"/><path d="M75,48.18a5.25,5.25,0,1,0,5.25,5.25A5.25,5.25,0,0,0,75,48.18Z"/><path d="M112.43,48.18a5.25,5.25,0,1,0,5.25,5.25A5.25,5.25,0,0,0,112.43,48.18Z"/><path d="M149.82,48.18a5.25,5.25,0,1,0,5.25,5.25A5.26,5.26,0,0,0,149.82,48.18Z"/><path d="M187.22,48.18a5.25,5.25,0,1,0,5.25,5.25A5.25,5.25,0,0,0,187.22,48.18Z"/><path d="M224.61,48.18a5.25,5.25,0,1,0,5.25,5.25A5.25,5.25,0,0,0,224.61,48.18Z"/><path d="M262,48.18a5.25,5.25,0,1,0,5.25,5.25A5.25,5.25,0,0,0,262,48.18Z"/><path d="M299.39,48.18a5.25,5.25,0,1,0,5.25,5.25A5.25,5.25,0,0,0,299.39,48.18Z"/><path d="M336.78,48.18A5.25,5.25,0,1,0,342,53.43,5.25,5.25,0,0,0,336.78,48.18Z"/><path d="M374.17,48.18a5.25,5.25,0,1,0,5.25,5.25A5.25,5.25,0,0,0,374.17,48.18Z"/><path d="M411.56,48.18a5.25,5.25,0,1,0,5.25,5.25A5.25,5.25,0,0,0,411.56,48.18Z"/><path d="M449,48.18a5.25,5.25,0,1,0,5.25,5.25A5.25,5.25,0,0,0,449,48.18Z"/><path d="M486.35,48.18a5.25,5.25,0,1,0,5.25,5.25A5.25,5.25,0,0,0,486.35,48.18Z"/><path d="M523.74,48.18A5.25,5.25,0,1,0,529,53.43,5.25,5.25,0,0,0,523.74,48.18Z"/><path d="M561.13,48.18a5.25,5.25,0,1,0,5.25,5.25A5.25,5.25,0,0,0,561.13,48.18Z"/><path d="M598.52,48.18a5.25,5.25,0,1,0,5.25,5.25A5.25,5.25,0,0,0,598.52,48.18Z"/><path d="M635.91,48.18a5.25,5.25,0,1,0,5.25,5.25A5.25,5.25,0,0,0,635.91,48.18Z"/><path d="M673.3,48.18a5.25,5.25,0,1,0,5.25,5.25A5.25,5.25,0,0,0,673.3,48.18Z"/><path d="M710.69,48.18a5.25,5.25,0,1,0,5.25,5.25A5.25,5.25,0,0,0,710.69,48.18Z"/><path d="M748.09,48.18a5.25,5.25,0,1,0,5.25,5.25A5.25,5.25,0,0,0,748.09,48.18Z"/><path d="M785.48,48.18a5.25,5.25,0,1,0,5.25,5.25A5.25,5.25,0,0,0,785.48,48.18Z"/><path d="M822.87,48.18a5.25,5.25,0,1,0,5.25,5.25A5.25,5.25,0,0,0,822.87,48.18Z"/><path d="M860.26,48.18a5.25,5.25,0,1,0,5.25,5.25A5.25,5.25,0,0,0,860.26,48.18Z"/><path d="M897.65,48.18a5.25,5.25,0,1,0,5.25,5.25A5.25,5.25,0,0,0,897.65,48.18Z"/><path d="M935,48.18a5.25,5.25,0,1,0,5.25,5.25A5.25,5.25,0,0,0,935,48.18Z"/><path d="M972.43,48.18a5.25,5.25,0,1,0,5.25,5.25A5.26,5.26,0,0,0,972.43,48.18Z"/><path d="M1009.83,48.18a5.25,5.25,0,1,0,5.25,5.25A5.25,5.25,0,0,0,1009.83,48.18Z"/><path d="M1047.22,48.18a5.25,5.25,0,1,0,5.25,5.25A5.25,5.25,0,0,0,1047.22,48.18Z"/><path d="M1084.61,48.18a5.25,5.25,0,1,0,5.25,5.25A5.25,5.25,0,0,0,1084.61,48.18Z"/><path d="M1116.75,53.43a5.25,5.25,0,0,0,5.25,5.25V48.18A5.25,5.25,0,0,0,1116.75,53.43Z"/><path d="M.26,208.46c-.09,0-.17,0-.26,0v10.45l.26,0a5.25,5.25,0,0,0,0-10.5Z"/><path d="M37.65,208.46a5.25,5.25,0,1,0,5.25,5.25A5.25,5.25,0,0,0,37.65,208.46Z"/><path d="M75,208.46a5.25,5.25,0,1,0,5.25,5.25A5.25,5.25,0,0,0,75,208.46Z"/><path d="M112.43,208.46a5.25,5.25,0,1,0,5.25,5.25A5.25,5.25,0,0,0,112.43,208.46Z"/><path d="M149.82,208.46a5.25,5.25,0,1,0,5.25,5.25A5.26,5.26,0,0,0,149.82,208.46Z"/><path d="M187.22,208.46a5.25,5.25,0,1,0,5.25,5.25A5.25,5.25,0,0,0,187.22,208.46Z"/><path d="M224.61,208.46a5.25,5.25,0,1,0,5.25,5.25A5.25,5.25,0,0,0,224.61,208.46Z"/><path d="M262,208.46a5.25,5.25,0,1,0,5.25,5.25A5.25,5.25,0,0,0,262,208.46Z"/><path d="M299.39,208.46a5.25,5.25,0,1,0,5.25,5.25A5.25,5.25,0,0,0,299.39,208.46Z"/><path d="M336.78,208.46a5.25,5.25,0,1,0,5.25,5.25A5.25,5.25,0,0,0,336.78,208.46Z"/><path d="M374.17,208.46a5.25,5.25,0,1,0,5.25,5.25A5.25,5.25,0,0,0,374.17,208.46Z"/><path d="M411.56,208.46a5.25,5.25,0,1,0,5.25,5.25A5.25,5.25,0,0,0,411.56,208.46Z"/><path d="M449,208.46a5.25,5.25,0,1,0,5.25,5.25A5.25,5.25,0,0,0,449,208.46Z"/><path d="M486.35,208.46a5.25,5.25,0,1,0,5.25,5.25A5.25,5.25,0,0,0,486.35,208.46Z"/><path d="M523.74,208.46a5.25,5.25,0,1,0,5.25,5.25A5.25,5.25,0,0,0,523.74,208.46Z"/><path d="M561.13,208.46a5.25,5.25,0,1,0,5.25,5.25A5.25,5.25,0,0,0,561.13,208.46Z"/><path d="M598.52,208.46a5.25,5.25,0,1,0,5.25,5.25A5.25,5.25,0,0,0,598.52,208.46Z"/><path d="M635.91,208.46a5.25,5.25,0,1,0,5.25,5.25A5.25,5.25,0,0,0,635.91,208.46Z"/><path d="M673.3,208.46a5.25,5.25,0,1,0,5.25,5.25A5.25,5.25,0,0,0,673.3,208.46Z"/><path d="M710.69,208.46a5.25,5.25,0,1,0,5.25,5.25A5.25,5.25,0,0,0,710.69,208.46Z"/><path d="M748.09,208.46a5.25,5.25,0,1,0,5.25,5.25A5.25,5.25,0,0,0,748.09,208.46Z"/><path d="M785.48,208.46a5.25,5.25,0,1,0,5.25,5.25A5.25,5.25,0,0,0,785.48,208.46Z"/><path d="M822.87,208.46a5.25,5.25,0,1,0,5.25,5.25A5.25,5.25,0,0,0,822.87,208.46Z"/><path d="M860.26,208.46a5.25,5.25,0,1,0,5.25,5.25A5.25,5.25,0,0,0,860.26,208.46Z"/><path d="M897.65,208.46a5.25,5.25,0,1,0,5.25,5.25A5.25,5.25,0,0,0,897.65,208.46Z"/><path d="M935,208.46a5.25,5.25,0,1,0,5.25,5.25A5.25,5.25,0,0,0,935,208.46Z"/><path d="M972.43,208.46a5.25,5.25,0,1,0,5.25,5.25A5.26,5.26,0,0,0,972.43,208.46Z"/><path d="M1009.83,208.46a5.25,5.25,0,1,0,5.25,5.25A5.25,5.25,0,0,0,1009.83,208.46Z"/><path d="M1047.22,208.46a5.25,5.25,0,1,0,5.25,5.25A5.25,5.25,0,0,0,1047.22,208.46Z"/><path d="M1084.61,208.46a5.25,5.25,0,1,0,5.25,5.25A5.25,5.25,0,0,0,1084.61,208.46Z"/><path d="M1116.75,213.71A5.25,5.25,0,0,0,1122,219v-10.5A5.25,5.25,0,0,0,1116.75,213.71Z"/><path d="M.26,261.89a2.3,2.3,0,0,0-.26,0v10.45l.26,0a5.25,5.25,0,0,0,0-10.5Z"/><path d="M37.65,261.89a5.25,5.25,0,1,0,5.25,5.25A5.25,5.25,0,0,0,37.65,261.89Z"/><path d="M75,261.89a5.25,5.25,0,1,0,5.25,5.25A5.25,5.25,0,0,0,75,261.89Z"/><path d="M112.43,261.89a5.25,5.25,0,1,0,5.25,5.25A5.25,5.25,0,0,0,112.43,261.89Z"/><path d="M149.82,261.89a5.25,5.25,0,1,0,5.25,5.25A5.26,5.26,0,0,0,149.82,261.89Z"/><path d="M187.22,261.89a5.25,5.25,0,1,0,5.25,5.25A5.25,5.25,0,0,0,187.22,261.89Z"/><path d="M224.61,261.89a5.25,5.25,0,1,0,5.25,5.25A5.25,5.25,0,0,0,224.61,261.89Z"/><path d="M262,261.89a5.25,5.25,0,1,0,5.25,5.25A5.25,5.25,0,0,0,262,261.89Z"/><path d="M299.39,261.89a5.25,5.25,0,1,0,5.25,5.25A5.25,5.25,0,0,0,299.39,261.89Z"/><path d="M336.78,261.89a5.25,5.25,0,1,0,5.25,5.25A5.25,5.25,0,0,0,336.78,261.89Z"/><path d="M374.17,261.89a5.25,5.25,0,1,0,5.25,5.25A5.25,5.25,0,0,0,374.17,261.89Z"/><path d="M411.56,261.89a5.25,5.25,0,1,0,5.25,5.25A5.25,5.25,0,0,0,411.56,261.89Z"/><path d="M449,261.89a5.25,5.25,0,1,0,5.25,5.25A5.25,5.25,0,0,0,449,261.89Z"/><path d="M486.35,261.89a5.25,5.25,0,1,0,5.25,5.25A5.25,5.25,0,0,0,486.35,261.89Z"/><path d="M523.74,261.89a5.25,5.25,0,1,0,5.25,5.25A5.25,5.25,0,0,0,523.74,261.89Z"/><path d="M561.13,261.89a5.25,5.25,0,1,0,5.25,5.25A5.25,5.25,0,0,0,561.13,261.89Z"/><path d="M598.52,261.89a5.25,5.25,0,1,0,5.25,5.25A5.25,5.25,0,0,0,598.52,261.89Z"/><path d="M635.91,261.89a5.25,5.25,0,1,0,5.25,5.25A5.25,5.25,0,0,0,635.91,261.89Z"/><path d="M673.3,261.89a5.25,5.25,0,1,0,5.25,5.25A5.25,5.25,0,0,0,673.3,261.89Z"/><path d="M710.69,261.89a5.25,5.25,0,1,0,5.25,5.25A5.25,5.25,0,0,0,710.69,261.89Z"/><path d="M748.09,261.89a5.25,5.25,0,1,0,5.25,5.25A5.25,5.25,0,0,0,748.09,261.89Z"/><path d="M785.48,261.89a5.25,5.25,0,1,0,5.25,5.25A5.25,5.25,0,0,0,785.48,261.89Z"/><path d="M822.87,261.89a5.25,5.25,0,1,0,5.25,5.25A5.25,5.25,0,0,0,822.87,261.89Z"/><path d="M860.26,261.89a5.25,5.25,0,1,0,5.25,5.25A5.25,5.25,0,0,0,860.26,261.89Z"/><path d="M897.65,261.89a5.25,5.25,0,1,0,5.25,5.25A5.25,5.25,0,0,0,897.65,261.89Z"/><path d="M935,261.89a5.25,5.25,0,1,0,5.25,5.25A5.25,5.25,0,0,0,935,261.89Z"/><path d="M972.43,261.89a5.25,5.25,0,1,0,5.25,5.25A5.26,5.26,0,0,0,972.43,261.89Z"/><path d="M1009.83,261.89a5.25,5.25,0,1,0,5.25,5.25A5.25,5.25,0,0,0,1009.83,261.89Z"/><path d="M1047.22,261.89a5.25,5.25,0,1,0,5.25,5.25A5.25,5.25,0,0,0,1047.22,261.89Z"/><path d="M1084.61,261.89a5.25,5.25,0,1,0,5.25,5.25A5.25,5.25,0,0,0,1084.61,261.89Z"/><path d="M1116.75,267.14a5.25,5.25,0,0,0,5.25,5.25v-10.5A5.25,5.25,0,0,0,1116.75,267.14Z"/><path d="M.26,101.61l-.26,0v10.45a2.3,2.3,0,0,0,.26,0,5.25,5.25,0,1,0,0-10.5Z"/><path d="M37.65,101.61a5.25,5.25,0,1,0,5.25,5.25A5.25,5.25,0,0,0,37.65,101.61Z"/><path d="M75,101.61a5.25,5.25,0,1,0,5.25,5.25A5.25,5.25,0,0,0,75,101.61Z"/><path d="M112.43,101.61a5.25,5.25,0,1,0,5.25,5.25A5.25,5.25,0,0,0,112.43,101.61Z"/><path d="M149.82,101.61a5.25,5.25,0,1,0,5.25,5.25A5.26,5.26,0,0,0,149.82,101.61Z"/><path d="M187.22,101.61a5.25,5.25,0,1,0,5.25,5.25A5.25,5.25,0,0,0,187.22,101.61Z"/><path d="M224.61,101.61a5.25,5.25,0,1,0,5.25,5.25A5.25,5.25,0,0,0,224.61,101.61Z"/><path d="M262,101.61a5.25,5.25,0,1,0,5.25,5.25A5.25,5.25,0,0,0,262,101.61Z"/><path d="M299.39,101.61a5.25,5.25,0,1,0,5.25,5.25A5.25,5.25,0,0,0,299.39,101.61Z"/><path d="M336.78,101.61a5.25,5.25,0,1,0,5.25,5.25A5.25,5.25,0,0,0,336.78,101.61Z"/><path d="M374.17,101.61a5.25,5.25,0,1,0,5.25,5.25A5.25,5.25,0,0,0,374.17,101.61Z"/><path d="M411.56,101.61a5.25,5.25,0,1,0,5.25,5.25A5.25,5.25,0,0,0,411.56,101.61Z"/><path d="M449,101.61a5.25,5.25,0,1,0,5.25,5.25A5.25,5.25,0,0,0,449,101.61Z"/><path d="M486.35,101.61a5.25,5.25,0,1,0,5.25,5.25A5.25,5.25,0,0,0,486.35,101.61Z"/><path d="M523.74,101.61a5.25,5.25,0,1,0,5.25,5.25A5.25,5.25,0,0,0,523.74,101.61Z"/><path d="M561.13,101.61a5.25,5.25,0,1,0,5.25,5.25A5.25,5.25,0,0,0,561.13,101.61Z"/><path d="M598.52,101.61a5.25,5.25,0,1,0,5.25,5.25A5.25,5.25,0,0,0,598.52,101.61Z"/><path d="M635.91,101.61a5.25,5.25,0,1,0,5.25,5.25A5.25,5.25,0,0,0,635.91,101.61Z"/><path d="M673.3,101.61a5.25,5.25,0,1,0,5.25,5.25A5.25,5.25,0,0,0,673.3,101.61Z"/><path d="M710.69,101.61a5.25,5.25,0,1,0,5.25,5.25A5.25,5.25,0,0,0,710.69,101.61Z"/><path d="M748.09,101.61a5.25,5.25,0,1,0,5.25,5.25A5.25,5.25,0,0,0,748.09,101.61Z"/><path d="M785.48,101.61a5.25,5.25,0,1,0,5.25,5.25A5.25,5.25,0,0,0,785.48,101.61Z"/><path d="M822.87,101.61a5.25,5.25,0,1,0,5.25,5.25A5.25,5.25,0,0,0,822.87,101.61Z"/><path d="M860.26,101.61a5.25,5.25,0,1,0,5.25,5.25A5.25,5.25,0,0,0,860.26,101.61Z"/><path d="M897.65,101.61a5.25,5.25,0,1,0,5.25,5.25A5.25,5.25,0,0,0,897.65,101.61Z"/><path d="M935,101.61a5.25,5.25,0,1,0,5.25,5.25A5.25,5.25,0,0,0,935,101.61Z"/><path d="M972.43,101.61a5.25,5.25,0,1,0,5.25,5.25A5.26,5.26,0,0,0,972.43,101.61Z"/><path d="M1009.83,101.61a5.25,5.25,0,1,0,5.25,5.25A5.25,5.25,0,0,0,1009.83,101.61Z"/><path d="M1047.22,101.61a5.25,5.25,0,1,0,5.25,5.25A5.25,5.25,0,0,0,1047.22,101.61Z"/><path d="M1084.61,101.61a5.25,5.25,0,1,0,5.25,5.25A5.25,5.25,0,0,0,1084.61,101.61Z"/><path d="M1116.75,106.86a5.25,5.25,0,0,0,5.25,5.25v-10.5A5.25,5.25,0,0,0,1116.75,106.86Z"/><path d="M.26,155l-.26,0v10.45c.09,0,.17,0,.26,0a5.25,5.25,0,0,0,0-10.5Z"/><path d="M37.65,155a5.25,5.25,0,1,0,5.25,5.25A5.25,5.25,0,0,0,37.65,155Z"/><circle cx="75.04" cy="160.29" r="5.25"/><path d="M112.43,155a5.25,5.25,0,1,0,5.25,5.25A5.25,5.25,0,0,0,112.43,155Z"/><circle cx="149.82" cy="160.29" r="5.25"/><path d="M187.22,155a5.25,5.25,0,1,0,5.25,5.25A5.25,5.25,0,0,0,187.22,155Z"/><path d="M224.61,155a5.25,5.25,0,1,0,5.25,5.25A5.25,5.25,0,0,0,224.61,155Z"/><path d="M262,155a5.25,5.25,0,1,0,5.25,5.25A5.25,5.25,0,0,0,262,155Z"/><path d="M299.39,155a5.25,5.25,0,1,0,5.25,5.25A5.25,5.25,0,0,0,299.39,155Z"/><path d="M336.78,155a5.25,5.25,0,1,0,5.25,5.25A5.25,5.25,0,0,0,336.78,155Z"/><path d="M374.17,155a5.25,5.25,0,1,0,5.25,5.25A5.25,5.25,0,0,0,374.17,155Z"/><path d="M411.56,155a5.25,5.25,0,1,0,5.25,5.25A5.25,5.25,0,0,0,411.56,155Z"/><circle cx="448.96" cy="160.29" r="5.25"/><path d="M486.35,155a5.25,5.25,0,1,0,5.25,5.25A5.25,5.25,0,0,0,486.35,155Z"/><path d="M523.74,155a5.25,5.25,0,1,0,5.25,5.25A5.25,5.25,0,0,0,523.74,155Z"/><circle cx="561.13" cy="160.29" r="5.25"/><path d="M598.52,155a5.25,5.25,0,1,0,5.25,5.25A5.25,5.25,0,0,0,598.52,155Z"/><circle cx="635.91" cy="160.29" r="5.25" transform="translate(-3.23 13.43) rotate(-1.21)"/><path d="M673.3,155a5.25,5.25,0,1,0,5.25,5.25A5.25,5.25,0,0,0,673.3,155Z"/><circle cx="710.7" cy="160.29" r="5.25" transform="translate(-13.99 85.37) rotate(-6.81)"/><circle cx="748.09" cy="160.29" r="5.25"/><path d="M785.48,155a5.25,5.25,0,1,0,5.25,5.25A5.25,5.25,0,0,0,785.48,155Z"/><circle cx="822.87" cy="160.29" r="5.25"/><path d="M860.26,155a5.25,5.25,0,1,0,5.25,5.25A5.25,5.25,0,0,0,860.26,155Z"/><path d="M897.65,155a5.25,5.25,0,1,0,5.25,5.25A5.25,5.25,0,0,0,897.65,155Z"/><circle cx="935.04" cy="160.29" r="5.25"/><path d="M972.43,155a5.25,5.25,0,1,0,5.25,5.25A5.26,5.26,0,0,0,972.43,155Z"/><path d="M1009.83,155a5.25,5.25,0,1,0,5.25,5.25A5.25,5.25,0,0,0,1009.83,155Z"/><path d="M1047.22,155a5.25,5.25,0,1,0,5.25,5.25A5.25,5.25,0,0,0,1047.22,155Z"/><path d="M1084.61,155a5.25,5.25,0,1,0,5.25,5.25A5.25,5.25,0,0,0,1084.61,155Z"/><path d="M1116.75,160.29a5.25,5.25,0,0,0,5.25,5.25V155A5.25,5.25,0,0,0,1116.75,160.29Z"/><path d="M.26,422.18l-.26,0v10.45a2.3,2.3,0,0,0,.26,0,5.25,5.25,0,0,0,0-10.5Z"/><path d="M37.65,422.18a5.25,5.25,0,1,0,5.25,5.25A5.25,5.25,0,0,0,37.65,422.18Z"/><path d="M75,422.18a5.25,5.25,0,1,0,5.25,5.25A5.25,5.25,0,0,0,75,422.18Z"/><path d="M112.43,422.18a5.25,5.25,0,1,0,5.25,5.25A5.25,5.25,0,0,0,112.43,422.18Z"/><path d="M149.82,422.18a5.25,5.25,0,1,0,5.25,5.25A5.26,5.26,0,0,0,149.82,422.18Z"/><path d="M187.22,422.18a5.25,5.25,0,1,0,5.25,5.25A5.25,5.25,0,0,0,187.22,422.18Z"/><path d="M224.61,422.18a5.25,5.25,0,1,0,5.25,5.25A5.25,5.25,0,0,0,224.61,422.18Z"/><path d="M262,422.18a5.25,5.25,0,1,0,5.25,5.25A5.25,5.25,0,0,0,262,422.18Z"/><path d="M299.39,422.18a5.25,5.25,0,1,0,5.25,5.25A5.25,5.25,0,0,0,299.39,422.18Z"/><path d="M336.78,422.18a5.25,5.25,0,1,0,5.25,5.25A5.25,5.25,0,0,0,336.78,422.18Z"/><path d="M374.17,422.18a5.25,5.25,0,1,0,5.25,5.25A5.25,5.25,0,0,0,374.17,422.18Z"/><path d="M411.56,422.18a5.25,5.25,0,1,0,5.25,5.25A5.25,5.25,0,0,0,411.56,422.18Z"/><path d="M449,422.18a5.25,5.25,0,1,0,5.25,5.25A5.25,5.25,0,0,0,449,422.18Z"/><path d="M486.35,422.18a5.25,5.25,0,1,0,5.25,5.25A5.25,5.25,0,0,0,486.35,422.18Z"/><path d="M523.74,422.18a5.25,5.25,0,1,0,5.25,5.25A5.25,5.25,0,0,0,523.74,422.18Z"/><path d="M561.13,422.18a5.25,5.25,0,1,0,5.25,5.25A5.25,5.25,0,0,0,561.13,422.18Z"/><path d="M598.52,422.18a5.25,5.25,0,1,0,5.25,5.25A5.25,5.25,0,0,0,598.52,422.18Z"/><path d="M635.91,422.18a5.25,5.25,0,1,0,5.25,5.25A5.25,5.25,0,0,0,635.91,422.18Z"/><path d="M673.3,422.18a5.25,5.25,0,1,0,5.25,5.25A5.25,5.25,0,0,0,673.3,422.18Z"/><path d="M710.69,422.18a5.25,5.25,0,1,0,5.25,5.25A5.25,5.25,0,0,0,710.69,422.18Z"/><path d="M748.09,422.18a5.25,5.25,0,1,0,5.25,5.25A5.25,5.25,0,0,0,748.09,422.18Z"/><path d="M785.48,422.18a5.25,5.25,0,1,0,5.25,5.25A5.25,5.25,0,0,0,785.48,422.18Z"/><path d="M822.87,422.18a5.25,5.25,0,1,0,5.25,5.25A5.25,5.25,0,0,0,822.87,422.18Z"/><path d="M860.26,422.18a5.25,5.25,0,1,0,5.25,5.25A5.25,5.25,0,0,0,860.26,422.18Z"/><path d="M897.65,422.18a5.25,5.25,0,1,0,5.25,5.25A5.25,5.25,0,0,0,897.65,422.18Z"/><path d="M935,422.18a5.25,5.25,0,1,0,5.25,5.25A5.25,5.25,0,0,0,935,422.18Z"/><path d="M972.43,422.18a5.25,5.25,0,1,0,5.25,5.25A5.26,5.26,0,0,0,972.43,422.18Z"/><path d="M1009.83,422.18a5.25,5.25,0,1,0,5.25,5.25A5.25,5.25,0,0,0,1009.83,422.18Z"/><path d="M1047.22,422.18a5.25,5.25,0,1,0,5.25,5.25A5.25,5.25,0,0,0,1047.22,422.18Z"/><path d="M1084.61,422.18a5.25,5.25,0,1,0,5.25,5.25A5.25,5.25,0,0,0,1084.61,422.18Z"/><path d="M1116.75,427.43a5.25,5.25,0,0,0,5.25,5.25v-10.5A5.25,5.25,0,0,0,1116.75,427.43Z"/><path d="M.26,475.61l-.26,0v10.45a2.3,2.3,0,0,0,.26,0,5.25,5.25,0,0,0,0-10.5Z"/><path d="M37.65,475.61a5.25,5.25,0,1,0,5.25,5.25A5.25,5.25,0,0,0,37.65,475.61Z"/><path d="M75,475.61a5.25,5.25,0,1,0,5.25,5.25A5.25,5.25,0,0,0,75,475.61Z"/><path d="M112.43,475.61a5.25,5.25,0,1,0,5.25,5.25A5.25,5.25,0,0,0,112.43,475.61Z"/><path d="M149.82,475.61a5.25,5.25,0,1,0,5.25,5.25A5.26,5.26,0,0,0,149.82,475.61Z"/><path d="M187.22,475.61a5.25,5.25,0,1,0,5.25,5.25A5.25,5.25,0,0,0,187.22,475.61Z"/><path d="M224.61,475.61a5.25,5.25,0,1,0,5.25,5.25A5.25,5.25,0,0,0,224.61,475.61Z"/><path d="M262,475.61a5.25,5.25,0,1,0,5.25,5.25A5.25,5.25,0,0,0,262,475.61Z"/><path d="M299.39,475.61a5.25,5.25,0,1,0,5.25,5.25A5.25,5.25,0,0,0,299.39,475.61Z"/><path d="M336.78,475.61a5.25,5.25,0,1,0,5.25,5.25A5.25,5.25,0,0,0,336.78,475.61Z"/><path d="M374.17,475.61a5.25,5.25,0,1,0,5.25,5.25A5.25,5.25,0,0,0,374.17,475.61Z"/><path d="M411.56,475.61a5.25,5.25,0,1,0,5.25,5.25A5.25,5.25,0,0,0,411.56,475.61Z"/><path d="M449,475.61a5.25,5.25,0,1,0,5.25,5.25A5.25,5.25,0,0,0,449,475.61Z"/><path d="M486.35,475.61a5.25,5.25,0,1,0,5.25,5.25A5.25,5.25,0,0,0,486.35,475.61Z"/><path d="M523.74,475.61a5.25,5.25,0,1,0,5.25,5.25A5.25,5.25,0,0,0,523.74,475.61Z"/><path d="M561.13,475.61a5.25,5.25,0,1,0,5.25,5.25A5.25,5.25,0,0,0,561.13,475.61Z"/><path d="M598.52,475.61a5.25,5.25,0,1,0,5.25,5.25A5.25,5.25,0,0,0,598.52,475.61Z"/><path d="M635.91,475.61a5.25,5.25,0,1,0,5.25,5.25A5.25,5.25,0,0,0,635.91,475.61Z"/><path d="M673.3,475.61a5.25,5.25,0,1,0,5.25,5.25A5.25,5.25,0,0,0,673.3,475.61Z"/><path d="M710.69,475.61a5.25,5.25,0,1,0,5.25,5.25A5.25,5.25,0,0,0,710.69,475.61Z"/><path d="M748.09,475.61a5.25,5.25,0,1,0,5.25,5.25A5.25,5.25,0,0,0,748.09,475.61Z"/><path d="M785.48,475.61a5.25,5.25,0,1,0,5.25,5.25A5.25,5.25,0,0,0,785.48,475.61Z"/><path d="M822.87,475.61a5.25,5.25,0,1,0,5.25,5.25A5.25,5.25,0,0,0,822.87,475.61Z"/><path d="M860.26,475.61a5.25,5.25,0,1,0,5.25,5.25A5.25,5.25,0,0,0,860.26,475.61Z"/><path d="M897.65,475.61a5.25,5.25,0,1,0,5.25,5.25A5.25,5.25,0,0,0,897.65,475.61Z"/><path d="M935,475.61a5.25,5.25,0,1,0,5.25,5.25A5.25,5.25,0,0,0,935,475.61Z"/><path d="M972.43,475.61a5.25,5.25,0,1,0,5.25,5.25A5.26,5.26,0,0,0,972.43,475.61Z"/><path d="M1009.83,475.61a5.25,5.25,0,1,0,5.25,5.25A5.25,5.25,0,0,0,1009.83,475.61Z"/><path d="M1047.22,475.61a5.25,5.25,0,1,0,5.25,5.25A5.25,5.25,0,0,0,1047.22,475.61Z"/><path d="M1084.61,475.61a5.25,5.25,0,1,0,5.25,5.25A5.25,5.25,0,0,0,1084.61,475.61Z"/><path d="M1116.75,480.86a5.25,5.25,0,0,0,5.25,5.25v-10.5A5.25,5.25,0,0,0,1116.75,480.86Z"/><path d="M.26,315.32a2.3,2.3,0,0,0-.26,0V325.8l.26,0a5.25,5.25,0,0,0,0-10.5Z"/><path d="M37.65,315.32a5.25,5.25,0,1,0,5.25,5.25A5.25,5.25,0,0,0,37.65,315.32Z"/><path d="M75,315.32a5.25,5.25,0,1,0,5.25,5.25A5.25,5.25,0,0,0,75,315.32Z"/><path d="M112.43,315.32a5.25,5.25,0,1,0,5.25,5.25A5.25,5.25,0,0,0,112.43,315.32Z"/><path d="M149.82,315.32a5.25,5.25,0,1,0,5.25,5.25A5.26,5.26,0,0,0,149.82,315.32Z"/><path d="M187.22,315.32a5.25,5.25,0,1,0,5.25,5.25A5.25,5.25,0,0,0,187.22,315.32Z"/><path d="M224.61,315.32a5.25,5.25,0,1,0,5.25,5.25A5.25,5.25,0,0,0,224.61,315.32Z"/><path d="M262,315.32a5.25,5.25,0,1,0,5.25,5.25A5.25,5.25,0,0,0,262,315.32Z"/><path d="M299.39,315.32a5.25,5.25,0,1,0,5.25,5.25A5.25,5.25,0,0,0,299.39,315.32Z"/><path d="M336.78,315.32a5.25,5.25,0,1,0,5.25,5.25A5.25,5.25,0,0,0,336.78,315.32Z"/><path d="M374.17,315.32a5.25,5.25,0,1,0,5.25,5.25A5.25,5.25,0,0,0,374.17,315.32Z"/><path d="M411.56,315.32a5.25,5.25,0,1,0,5.25,5.25A5.25,5.25,0,0,0,411.56,315.32Z"/><path d="M449,315.32a5.25,5.25,0,1,0,5.25,5.25A5.25,5.25,0,0,0,449,315.32Z"/><path d="M486.35,315.32a5.25,5.25,0,1,0,5.25,5.25A5.25,5.25,0,0,0,486.35,315.32Z"/><path d="M523.74,315.32a5.25,5.25,0,1,0,5.25,5.25A5.25,5.25,0,0,0,523.74,315.32Z"/><path d="M561.13,315.32a5.25,5.25,0,1,0,5.25,5.25A5.25,5.25,0,0,0,561.13,315.32Z"/><path d="M598.52,315.32a5.25,5.25,0,1,0,5.25,5.25A5.25,5.25,0,0,0,598.52,315.32Z"/><path d="M635.91,315.32a5.25,5.25,0,1,0,5.25,5.25A5.25,5.25,0,0,0,635.91,315.32Z"/><path d="M673.3,315.32a5.25,5.25,0,1,0,5.25,5.25A5.25,5.25,0,0,0,673.3,315.32Z"/><path d="M710.69,315.32a5.25,5.25,0,1,0,5.25,5.25A5.25,5.25,0,0,0,710.69,315.32Z"/><path d="M748.09,315.32a5.25,5.25,0,1,0,5.25,5.25A5.25,5.25,0,0,0,748.09,315.32Z"/><path d="M785.48,315.32a5.25,5.25,0,1,0,5.25,5.25A5.25,5.25,0,0,0,785.48,315.32Z"/><path d="M822.87,315.32a5.25,5.25,0,1,0,5.25,5.25A5.25,5.25,0,0,0,822.87,315.32Z"/><path d="M860.26,315.32a5.25,5.25,0,1,0,5.25,5.25A5.25,5.25,0,0,0,860.26,315.32Z"/><path d="M897.65,315.32a5.25,5.25,0,1,0,5.25,5.25A5.25,5.25,0,0,0,897.65,315.32Z"/><path d="M935,315.32a5.25,5.25,0,1,0,5.25,5.25A5.25,5.25,0,0,0,935,315.32Z"/><path d="M972.43,315.32a5.25,5.25,0,1,0,5.25,5.25A5.26,5.26,0,0,0,972.43,315.32Z"/><path d="M1009.83,315.32a5.25,5.25,0,1,0,5.25,5.25A5.25,5.25,0,0,0,1009.83,315.32Z"/><path d="M1047.22,315.32a5.25,5.25,0,1,0,5.25,5.25A5.25,5.25,0,0,0,1047.22,315.32Z"/><path d="M1084.61,315.32a5.25,5.25,0,1,0,5.25,5.25A5.25,5.25,0,0,0,1084.61,315.32Z"/><path d="M1116.75,320.57a5.25,5.25,0,0,0,5.25,5.25v-10.5A5.25,5.25,0,0,0,1116.75,320.57Z"/><path d="M.26,368.75a2.3,2.3,0,0,0-.26,0v10.44a2.3,2.3,0,0,0,.26,0,5.25,5.25,0,0,0,0-10.5Z"/><path d="M37.65,368.75A5.25,5.25,0,1,0,42.9,374,5.25,5.25,0,0,0,37.65,368.75Z"/><path d="M75,368.75A5.25,5.25,0,1,0,80.29,374,5.25,5.25,0,0,0,75,368.75Z"/><path d="M112.43,368.75a5.25,5.25,0,1,0,5.25,5.25A5.25,5.25,0,0,0,112.43,368.75Z"/><path d="M149.82,368.75a5.25,5.25,0,1,0,5.25,5.25A5.26,5.26,0,0,0,149.82,368.75Z"/><path d="M187.22,368.75a5.25,5.25,0,1,0,5.25,5.25A5.25,5.25,0,0,0,187.22,368.75Z"/><path d="M224.61,368.75a5.25,5.25,0,1,0,5.25,5.25A5.25,5.25,0,0,0,224.61,368.75Z"/><path d="M262,368.75a5.25,5.25,0,1,0,5.25,5.25A5.25,5.25,0,0,0,262,368.75Z"/><path d="M299.39,368.75a5.25,5.25,0,1,0,5.25,5.25A5.25,5.25,0,0,0,299.39,368.75Z"/><path d="M336.78,368.75A5.25,5.25,0,1,0,342,374,5.25,5.25,0,0,0,336.78,368.75Z"/><path d="M374.17,368.75a5.25,5.25,0,1,0,5.25,5.25A5.25,5.25,0,0,0,374.17,368.75Z"/><path d="M411.56,368.75a5.25,5.25,0,1,0,5.25,5.25A5.25,5.25,0,0,0,411.56,368.75Z"/><path d="M449,368.75a5.25,5.25,0,1,0,5.25,5.25A5.25,5.25,0,0,0,449,368.75Z"/><path d="M486.35,368.75A5.25,5.25,0,1,0,491.6,374,5.25,5.25,0,0,0,486.35,368.75Z"/><path d="M523.74,368.75A5.25,5.25,0,1,0,529,374,5.25,5.25,0,0,0,523.74,368.75Z"/><path d="M561.13,368.75a5.25,5.25,0,1,0,5.25,5.25A5.25,5.25,0,0,0,561.13,368.75Z"/><path d="M598.52,368.75a5.25,5.25,0,1,0,5.25,5.25A5.25,5.25,0,0,0,598.52,368.75Z"/><path d="M635.91,368.75a5.25,5.25,0,1,0,5.25,5.25A5.25,5.25,0,0,0,635.91,368.75Z"/><path d="M673.3,368.75a5.25,5.25,0,1,0,5.25,5.25A5.25,5.25,0,0,0,673.3,368.75Z"/><path d="M710.69,368.75a5.25,5.25,0,1,0,5.25,5.25A5.25,5.25,0,0,0,710.69,368.75Z"/><path d="M748.09,368.75a5.25,5.25,0,1,0,5.25,5.25A5.25,5.25,0,0,0,748.09,368.75Z"/><path d="M785.48,368.75a5.25,5.25,0,1,0,5.25,5.25A5.25,5.25,0,0,0,785.48,368.75Z"/><path d="M822.87,368.75a5.25,5.25,0,1,0,5.25,5.25A5.25,5.25,0,0,0,822.87,368.75Z"/><path d="M860.26,368.75a5.25,5.25,0,1,0,5.25,5.25A5.25,5.25,0,0,0,860.26,368.75Z"/><path d="M897.65,368.75A5.25,5.25,0,1,0,902.9,374,5.25,5.25,0,0,0,897.65,368.75Z"/><path d="M935,368.75a5.25,5.25,0,1,0,5.25,5.25A5.25,5.25,0,0,0,935,368.75Z"/><path d="M972.43,368.75a5.25,5.25,0,1,0,5.25,5.25A5.26,5.26,0,0,0,972.43,368.75Z"/><path d="M1009.83,368.75a5.25,5.25,0,1,0,5.25,5.25A5.25,5.25,0,0,0,1009.83,368.75Z"/><path d="M1047.22,368.75a5.25,5.25,0,1,0,5.25,5.25A5.25,5.25,0,0,0,1047.22,368.75Z"/><path d="M1084.61,368.75a5.25,5.25,0,1,0,5.25,5.25A5.25,5.25,0,0,0,1084.61,368.75Z"/><path d="M1116.75,374a5.25,5.25,0,0,0,5.25,5.25v-10.5A5.25,5.25,0,0,0,1116.75,374Z"/><path d="M.26,635.89a2.3,2.3,0,0,0-.26,0v10.45l.26,0a5.25,5.25,0,0,0,0-10.5Z"/><path d="M37.65,635.89a5.25,5.25,0,1,0,5.25,5.25A5.25,5.25,0,0,0,37.65,635.89Z"/><path d="M75,635.89a5.25,5.25,0,1,0,5.25,5.25A5.25,5.25,0,0,0,75,635.89Z"/><path d="M112.43,635.89a5.25,5.25,0,1,0,5.25,5.25A5.25,5.25,0,0,0,112.43,635.89Z"/><path d="M149.82,635.89a5.25,5.25,0,1,0,5.25,5.25A5.26,5.26,0,0,0,149.82,635.89Z"/><path d="M187.22,635.89a5.25,5.25,0,1,0,5.25,5.25A5.25,5.25,0,0,0,187.22,635.89Z"/><path d="M224.61,635.89a5.25,5.25,0,1,0,5.25,5.25A5.25,5.25,0,0,0,224.61,635.89Z"/><path d="M262,635.89a5.25,5.25,0,1,0,5.25,5.25A5.25,5.25,0,0,0,262,635.89Z"/><path d="M299.39,635.89a5.25,5.25,0,1,0,5.25,5.25A5.25,5.25,0,0,0,299.39,635.89Z"/><path d="M336.78,635.89a5.25,5.25,0,1,0,5.25,5.25A5.25,5.25,0,0,0,336.78,635.89Z"/><path d="M374.17,635.89a5.25,5.25,0,1,0,5.25,5.25A5.25,5.25,0,0,0,374.17,635.89Z"/><path d="M411.56,635.89a5.25,5.25,0,1,0,5.25,5.25A5.25,5.25,0,0,0,411.56,635.89Z"/><path d="M449,635.89a5.25,5.25,0,1,0,5.25,5.25A5.25,5.25,0,0,0,449,635.89Z"/><path d="M486.35,635.89a5.25,5.25,0,1,0,5.25,5.25A5.25,5.25,0,0,0,486.35,635.89Z"/><path d="M523.74,635.89a5.25,5.25,0,1,0,5.25,5.25A5.25,5.25,0,0,0,523.74,635.89Z"/><path d="M561.13,635.89a5.25,5.25,0,1,0,5.25,5.25A5.25,5.25,0,0,0,561.13,635.89Z"/><path d="M598.52,635.89a5.25,5.25,0,1,0,5.25,5.25A5.25,5.25,0,0,0,598.52,635.89Z"/><path d="M635.91,635.89a5.25,5.25,0,1,0,5.25,5.25A5.25,5.25,0,0,0,635.91,635.89Z"/><path d="M673.3,635.89a5.25,5.25,0,1,0,5.25,5.25A5.25,5.25,0,0,0,673.3,635.89Z"/><path d="M710.69,635.89a5.25,5.25,0,1,0,5.25,5.25A5.25,5.25,0,0,0,710.69,635.89Z"/><path d="M748.09,635.89a5.25,5.25,0,1,0,5.25,5.25A5.25,5.25,0,0,0,748.09,635.89Z"/><path d="M785.48,635.89a5.25,5.25,0,1,0,5.25,5.25A5.25,5.25,0,0,0,785.48,635.89Z"/><path d="M822.87,635.89a5.25,5.25,0,1,0,5.25,5.25A5.25,5.25,0,0,0,822.87,635.89Z"/><path d="M860.26,635.89a5.25,5.25,0,1,0,5.25,5.25A5.25,5.25,0,0,0,860.26,635.89Z"/><path d="M897.65,635.89a5.25,5.25,0,1,0,5.25,5.25A5.25,5.25,0,0,0,897.65,635.89Z"/><path d="M935,635.89a5.25,5.25,0,1,0,5.25,5.25A5.25,5.25,0,0,0,935,635.89Z"/><path d="M972.43,635.89a5.25,5.25,0,1,0,5.25,5.25A5.26,5.26,0,0,0,972.43,635.89Z"/><path d="M1009.83,635.89a5.25,5.25,0,1,0,5.25,5.25A5.25,5.25,0,0,0,1009.83,635.89Z"/><path d="M1047.22,635.89a5.25,5.25,0,1,0,5.25,5.25A5.25,5.25,0,0,0,1047.22,635.89Z"/><path d="M1084.61,635.89a5.25,5.25,0,1,0,5.25,5.25A5.25,5.25,0,0,0,1084.61,635.89Z"/><path d="M1116.75,641.14a5.25,5.25,0,0,0,5.25,5.25v-10.5A5.25,5.25,0,0,0,1116.75,641.14Z"/><path d="M.26,689.32a2.3,2.3,0,0,0-.26,0V699.8l.26,0a5.25,5.25,0,0,0,0-10.5Z"/><path d="M37.65,689.32a5.25,5.25,0,1,0,5.25,5.25A5.25,5.25,0,0,0,37.65,689.32Z"/><path d="M75,689.32a5.25,5.25,0,1,0,5.25,5.25A5.25,5.25,0,0,0,75,689.32Z"/><path d="M112.43,689.32a5.25,5.25,0,1,0,5.25,5.25A5.25,5.25,0,0,0,112.43,689.32Z"/><path d="M149.82,689.32a5.25,5.25,0,1,0,5.25,5.25A5.26,5.26,0,0,0,149.82,689.32Z"/><path d="M187.22,689.32a5.25,5.25,0,1,0,5.25,5.25A5.25,5.25,0,0,0,187.22,689.32Z"/><path d="M224.61,689.32a5.25,5.25,0,1,0,5.25,5.25A5.25,5.25,0,0,0,224.61,689.32Z"/><path d="M262,689.32a5.25,5.25,0,1,0,5.25,5.25A5.25,5.25,0,0,0,262,689.32Z"/><path d="M299.39,689.32a5.25,5.25,0,1,0,5.25,5.25A5.25,5.25,0,0,0,299.39,689.32Z"/><path d="M336.78,689.32a5.25,5.25,0,1,0,5.25,5.25A5.25,5.25,0,0,0,336.78,689.32Z"/><path d="M374.17,689.32a5.25,5.25,0,1,0,5.25,5.25A5.25,5.25,0,0,0,374.17,689.32Z"/><path d="M411.56,689.32a5.25,5.25,0,1,0,5.25,5.25A5.25,5.25,0,0,0,411.56,689.32Z"/><path d="M449,689.32a5.25,5.25,0,1,0,5.25,5.25A5.25,5.25,0,0,0,449,689.32Z"/><path d="M486.35,689.32a5.25,5.25,0,1,0,5.25,5.25A5.25,5.25,0,0,0,486.35,689.32Z"/><path d="M523.74,689.32a5.25,5.25,0,1,0,5.25,5.25A5.25,5.25,0,0,0,523.74,689.32Z"/><path d="M561.13,689.32a5.25,5.25,0,1,0,5.25,5.25A5.25,5.25,0,0,0,561.13,689.32Z"/><path d="M598.52,689.32a5.25,5.25,0,1,0,5.25,5.25A5.25,5.25,0,0,0,598.52,689.32Z"/><path d="M635.91,689.32a5.25,5.25,0,1,0,5.25,5.25A5.25,5.25,0,0,0,635.91,689.32Z"/><path d="M673.3,689.32a5.25,5.25,0,1,0,5.25,5.25A5.25,5.25,0,0,0,673.3,689.32Z"/><path d="M710.69,689.32a5.25,5.25,0,1,0,5.25,5.25A5.25,5.25,0,0,0,710.69,689.32Z"/><path d="M748.09,689.32a5.25,5.25,0,1,0,5.25,5.25A5.25,5.25,0,0,0,748.09,689.32Z"/><path d="M785.48,689.32a5.25,5.25,0,1,0,5.25,5.25A5.25,5.25,0,0,0,785.48,689.32Z"/><path d="M822.87,689.32a5.25,5.25,0,1,0,5.25,5.25A5.25,5.25,0,0,0,822.87,689.32Z"/><path d="M860.26,689.32a5.25,5.25,0,1,0,5.25,5.25A5.25,5.25,0,0,0,860.26,689.32Z"/><path d="M897.65,689.32a5.25,5.25,0,1,0,5.25,5.25A5.25,5.25,0,0,0,897.65,689.32Z"/><path d="M935,689.32a5.25,5.25,0,1,0,5.25,5.25A5.25,5.25,0,0,0,935,689.32Z"/><path d="M972.43,689.32a5.25,5.25,0,1,0,5.25,5.25A5.26,5.26,0,0,0,972.43,689.32Z"/><path d="M1009.83,689.32a5.25,5.25,0,1,0,5.25,5.25A5.25,5.25,0,0,0,1009.83,689.32Z"/><path d="M1047.22,689.32a5.25,5.25,0,1,0,5.25,5.25A5.25,5.25,0,0,0,1047.22,689.32Z"/><path d="M1084.61,689.32a5.25,5.25,0,1,0,5.25,5.25A5.25,5.25,0,0,0,1084.61,689.32Z"/><path d="M1116.75,694.57a5.25,5.25,0,0,0,5.25,5.25v-10.5A5.25,5.25,0,0,0,1116.75,694.57Z"/><path d="M.26,529l-.26,0v10.45c.09,0,.17,0,.26,0a5.25,5.25,0,0,0,0-10.5Z"/><path d="M37.65,529a5.25,5.25,0,1,0,5.25,5.25A5.25,5.25,0,0,0,37.65,529Z"/><circle cx="75.04" cy="534.29" r="5.25"/><path d="M112.43,529a5.25,5.25,0,1,0,5.25,5.25A5.25,5.25,0,0,0,112.43,529Z"/><circle cx="149.82" cy="534.29" r="5.25"/><path d="M187.22,529a5.25,5.25,0,1,0,5.25,5.25A5.25,5.25,0,0,0,187.22,529Z"/><path d="M224.61,529a5.25,5.25,0,1,0,5.25,5.25A5.25,5.25,0,0,0,224.61,529Z"/><path d="M262,529a5.25,5.25,0,1,0,5.25,5.25A5.25,5.25,0,0,0,262,529Z"/><path d="M299.39,529a5.25,5.25,0,1,0,5.25,5.25A5.25,5.25,0,0,0,299.39,529Z"/><path d="M336.78,529a5.25,5.25,0,1,0,5.25,5.25A5.25,5.25,0,0,0,336.78,529Z"/><path d="M374.17,529a5.25,5.25,0,1,0,5.25,5.25A5.25,5.25,0,0,0,374.17,529Z"/><path d="M411.56,529a5.25,5.25,0,1,0,5.25,5.25A5.25,5.25,0,0,0,411.56,529Z"/><circle cx="448.96" cy="534.29" r="5.25"/><path d="M486.35,529a5.25,5.25,0,1,0,5.25,5.25A5.25,5.25,0,0,0,486.35,529Z"/><path d="M523.74,529a5.25,5.25,0,1,0,5.25,5.25A5.25,5.25,0,0,0,523.74,529Z"/><circle cx="561.13" cy="534.29" r="5.25"/><path d="M598.52,529a5.25,5.25,0,1,0,5.25,5.25A5.25,5.25,0,0,0,598.52,529Z"/><circle cx="635.91" cy="534.29" r="5.25" transform="translate(-11.11 13.51) rotate(-1.21)"/><path d="M673.3,529a5.25,5.25,0,1,0,5.25,5.25A5.25,5.25,0,0,0,673.3,529Z"/><circle cx="710.7" cy="534.29" r="5.25" transform="translate(-58.32 88.01) rotate(-6.81)"/><circle cx="748.09" cy="534.29" r="5.25"/><path d="M785.48,529a5.25,5.25,0,1,0,5.25,5.25A5.25,5.25,0,0,0,785.48,529Z"/><circle cx="822.87" cy="534.29" r="5.25"/><path d="M860.26,529a5.25,5.25,0,1,0,5.25,5.25A5.25,5.25,0,0,0,860.26,529Z"/><path d="M897.65,529a5.25,5.25,0,1,0,5.25,5.25A5.25,5.25,0,0,0,897.65,529Z"/><circle cx="935.04" cy="534.29" r="5.25"/><path d="M972.43,529a5.25,5.25,0,1,0,5.25,5.25A5.26,5.26,0,0,0,972.43,529Z"/><path d="M1009.83,529a5.25,5.25,0,1,0,5.25,5.25A5.25,5.25,0,0,0,1009.83,529Z"/><path d="M1047.22,529a5.25,5.25,0,1,0,5.25,5.25A5.25,5.25,0,0,0,1047.22,529Z"/><path d="M1084.61,529a5.25,5.25,0,1,0,5.25,5.25A5.25,5.25,0,0,0,1084.61,529Z"/><path d="M1116.75,534.29a5.25,5.25,0,0,0,5.25,5.25V529A5.25,5.25,0,0,0,1116.75,534.29Z"/><path d="M.26,582.46c-.09,0-.17,0-.26,0v10.45l.26,0a5.25,5.25,0,0,0,0-10.5Z"/><path d="M37.65,582.46a5.25,5.25,0,1,0,5.25,5.25A5.25,5.25,0,0,0,37.65,582.46Z"/><path d="M75,582.46a5.25,5.25,0,1,0,5.25,5.25A5.25,5.25,0,0,0,75,582.46Z"/><path d="M112.43,582.46a5.25,5.25,0,1,0,5.25,5.25A5.25,5.25,0,0,0,112.43,582.46Z"/><path d="M149.82,582.46a5.25,5.25,0,1,0,5.25,5.25A5.26,5.26,0,0,0,149.82,582.46Z"/><path d="M187.22,582.46a5.25,5.25,0,1,0,5.25,5.25A5.25,5.25,0,0,0,187.22,582.46Z"/><path d="M224.61,582.46a5.25,5.25,0,1,0,5.25,5.25A5.25,5.25,0,0,0,224.61,582.46Z"/><path d="M262,582.46a5.25,5.25,0,1,0,5.25,5.25A5.25,5.25,0,0,0,262,582.46Z"/><path d="M299.39,582.46a5.25,5.25,0,1,0,5.25,5.25A5.25,5.25,0,0,0,299.39,582.46Z"/><path d="M336.78,582.46a5.25,5.25,0,1,0,5.25,5.25A5.25,5.25,0,0,0,336.78,582.46Z"/><path d="M374.17,582.46a5.25,5.25,0,1,0,5.25,5.25A5.25,5.25,0,0,0,374.17,582.46Z"/><path d="M411.56,582.46a5.25,5.25,0,1,0,5.25,5.25A5.25,5.25,0,0,0,411.56,582.46Z"/><path d="M449,582.46a5.25,5.25,0,1,0,5.25,5.25A5.25,5.25,0,0,0,449,582.46Z"/><path d="M486.35,582.46a5.25,5.25,0,1,0,5.25,5.25A5.25,5.25,0,0,0,486.35,582.46Z"/><path d="M523.74,582.46a5.25,5.25,0,1,0,5.25,5.25A5.25,5.25,0,0,0,523.74,582.46Z"/><path d="M561.13,582.46a5.25,5.25,0,1,0,5.25,5.25A5.25,5.25,0,0,0,561.13,582.46Z"/><path d="M598.52,582.46a5.25,5.25,0,1,0,5.25,5.25A5.25,5.25,0,0,0,598.52,582.46Z"/><path d="M635.91,582.46a5.25,5.25,0,1,0,5.25,5.25A5.25,5.25,0,0,0,635.91,582.46Z"/><path d="M673.3,582.46a5.25,5.25,0,1,0,5.25,5.25A5.25,5.25,0,0,0,673.3,582.46Z"/><path d="M710.69,582.46a5.25,5.25,0,1,0,5.25,5.25A5.25,5.25,0,0,0,710.69,582.46Z"/><path d="M748.09,582.46a5.25,5.25,0,1,0,5.25,5.25A5.25,5.25,0,0,0,748.09,582.46Z"/><path d="M785.48,582.46a5.25,5.25,0,1,0,5.25,5.25A5.25,5.25,0,0,0,785.48,582.46Z"/><path d="M822.87,582.46a5.25,5.25,0,1,0,5.25,5.25A5.25,5.25,0,0,0,822.87,582.46Z"/><path d="M860.26,582.46a5.25,5.25,0,1,0,5.25,5.25A5.25,5.25,0,0,0,860.26,582.46Z"/><path d="M897.65,582.46a5.25,5.25,0,1,0,5.25,5.25A5.25,5.25,0,0,0,897.65,582.46Z"/><path d="M935,582.46a5.25,5.25,0,1,0,5.25,5.25A5.25,5.25,0,0,0,935,582.46Z"/><path d="M972.43,582.46a5.25,5.25,0,1,0,5.25,5.25A5.26,5.26,0,0,0,972.43,582.46Z"/><path d="M1009.83,582.46a5.25,5.25,0,1,0,5.25,5.25A5.25,5.25,0,0,0,1009.83,582.46Z"/><path d="M1047.22,582.46a5.25,5.25,0,1,0,5.25,5.25A5.25,5.25,0,0,0,1047.22,582.46Z"/><path d="M1084.61,582.46a5.25,5.25,0,1,0,5.25,5.25A5.25,5.25,0,0,0,1084.61,582.46Z"/><path d="M1116.75,587.71A5.25,5.25,0,0,0,1122,593v-10.5A5.25,5.25,0,0,0,1116.75,587.71Z"/><path d="M.26,849.61l-.26,0v10.45a2.3,2.3,0,0,0,.26,0,5.25,5.25,0,0,0,0-10.5Z"/><path d="M37.65,849.61a5.25,5.25,0,1,0,5.25,5.25A5.25,5.25,0,0,0,37.65,849.61Z"/><path d="M75,849.61a5.25,5.25,0,1,0,5.25,5.25A5.25,5.25,0,0,0,75,849.61Z"/><path d="M112.43,849.61a5.25,5.25,0,1,0,5.25,5.25A5.25,5.25,0,0,0,112.43,849.61Z"/><path d="M149.82,849.61a5.25,5.25,0,1,0,5.25,5.25A5.26,5.26,0,0,0,149.82,849.61Z"/><path d="M187.22,849.61a5.25,5.25,0,1,0,5.25,5.25A5.25,5.25,0,0,0,187.22,849.61Z"/><path d="M224.61,849.61a5.25,5.25,0,1,0,5.25,5.25A5.25,5.25,0,0,0,224.61,849.61Z"/><path d="M262,849.61a5.25,5.25,0,1,0,5.25,5.25A5.25,5.25,0,0,0,262,849.61Z"/><path d="M299.39,849.61a5.25,5.25,0,1,0,5.25,5.25A5.25,5.25,0,0,0,299.39,849.61Z"/><path d="M336.78,849.61a5.25,5.25,0,1,0,5.25,5.25A5.25,5.25,0,0,0,336.78,849.61Z"/><path d="M374.17,849.61a5.25,5.25,0,1,0,5.25,5.25A5.25,5.25,0,0,0,374.17,849.61Z"/><path d="M411.56,849.61a5.25,5.25,0,1,0,5.25,5.25A5.25,5.25,0,0,0,411.56,849.61Z"/><path d="M449,849.61a5.25,5.25,0,1,0,5.25,5.25A5.25,5.25,0,0,0,449,849.61Z"/><path d="M486.35,849.61a5.25,5.25,0,1,0,5.25,5.25A5.25,5.25,0,0,0,486.35,849.61Z"/><path d="M523.74,849.61a5.25,5.25,0,1,0,5.25,5.25A5.25,5.25,0,0,0,523.74,849.61Z"/><path d="M561.13,849.61a5.25,5.25,0,1,0,5.25,5.25A5.25,5.25,0,0,0,561.13,849.61Z"/><path d="M598.52,849.61a5.25,5.25,0,1,0,5.25,5.25A5.25,5.25,0,0,0,598.52,849.61Z"/><path d="M635.91,849.61a5.25,5.25,0,1,0,5.25,5.25A5.25,5.25,0,0,0,635.91,849.61Z"/><path d="M673.3,849.61a5.25,5.25,0,1,0,5.25,5.25A5.25,5.25,0,0,0,673.3,849.61Z"/><path d="M710.69,849.61a5.25,5.25,0,1,0,5.25,5.25A5.25,5.25,0,0,0,710.69,849.61Z"/><path d="M748.09,849.61a5.25,5.25,0,1,0,5.25,5.25A5.25,5.25,0,0,0,748.09,849.61Z"/><path d="M785.48,849.61a5.25,5.25,0,1,0,5.25,5.25A5.25,5.25,0,0,0,785.48,849.61Z"/><path d="M822.87,849.61a5.25,5.25,0,1,0,5.25,5.25A5.25,5.25,0,0,0,822.87,849.61Z"/><path d="M860.26,849.61a5.25,5.25,0,1,0,5.25,5.25A5.25,5.25,0,0,0,860.26,849.61Z"/><path d="M897.65,849.61a5.25,5.25,0,1,0,5.25,5.25A5.25,5.25,0,0,0,897.65,849.61Z"/><path d="M935,849.61a5.25,5.25,0,1,0,5.25,5.25A5.25,5.25,0,0,0,935,849.61Z"/><path d="M972.43,849.61a5.25,5.25,0,1,0,5.25,5.25A5.26,5.26,0,0,0,972.43,849.61Z"/><path d="M1009.83,849.61a5.25,5.25,0,1,0,5.25,5.25A5.25,5.25,0,0,0,1009.83,849.61Z"/><path d="M1047.22,849.61a5.25,5.25,0,1,0,5.25,5.25A5.25,5.25,0,0,0,1047.22,849.61Z"/><path d="M1084.61,849.61a5.25,5.25,0,1,0,5.25,5.25A5.25,5.25,0,0,0,1084.61,849.61Z"/><path d="M1116.75,854.86a5.25,5.25,0,0,0,5.25,5.25v-10.5A5.25,5.25,0,0,0,1116.75,854.86Z"/><path d="M.26,903l-.26,0v10.45c.09,0,.17,0,.26,0a5.25,5.25,0,0,0,0-10.5Z"/><path d="M37.65,903a5.25,5.25,0,1,0,5.25,5.25A5.25,5.25,0,0,0,37.65,903Z"/><circle cx="75.04" cy="908.29" r="5.25"/><path d="M112.43,903a5.25,5.25,0,1,0,5.25,5.25A5.25,5.25,0,0,0,112.43,903Z"/><circle cx="149.82" cy="908.29" r="5.25"/><path d="M187.22,903a5.25,5.25,0,1,0,5.25,5.25A5.25,5.25,0,0,0,187.22,903Z"/><path d="M224.61,903a5.25,5.25,0,1,0,5.25,5.25A5.25,5.25,0,0,0,224.61,903Z"/><path d="M262,903a5.25,5.25,0,1,0,5.25,5.25A5.25,5.25,0,0,0,262,903Z"/><path d="M299.39,903a5.25,5.25,0,1,0,5.25,5.25A5.25,5.25,0,0,0,299.39,903Z"/><path d="M336.78,903a5.25,5.25,0,1,0,5.25,5.25A5.25,5.25,0,0,0,336.78,903Z"/><path d="M374.17,903a5.25,5.25,0,1,0,5.25,5.25A5.25,5.25,0,0,0,374.17,903Z"/><path d="M411.56,903a5.25,5.25,0,1,0,5.25,5.25A5.25,5.25,0,0,0,411.56,903Z"/><circle cx="448.96" cy="908.29" r="5.25"/><path d="M486.35,903a5.25,5.25,0,1,0,5.25,5.25A5.25,5.25,0,0,0,486.35,903Z"/><path d="M523.74,903a5.25,5.25,0,1,0,5.25,5.25A5.25,5.25,0,0,0,523.74,903Z"/><circle cx="561.13" cy="908.29" r="5.25"/><path d="M598.52,903a5.25,5.25,0,1,0,5.25,5.25A5.25,5.25,0,0,0,598.52,903Z"/><circle cx="635.91" cy="908.29" r="5.25" transform="translate(-18.99 13.59) rotate(-1.21)"/><path d="M673.3,903a5.25,5.25,0,1,0,5.25,5.25A5.25,5.25,0,0,0,673.3,903Z"/><circle cx="710.7" cy="908.29" r="5.25" transform="translate(-102.65 90.65) rotate(-6.81)"/><circle cx="748.09" cy="908.29" r="5.25"/><path d="M785.48,903a5.25,5.25,0,1,0,5.25,5.25A5.25,5.25,0,0,0,785.48,903Z"/><circle cx="822.87" cy="908.29" r="5.25"/><path d="M860.26,903a5.25,5.25,0,1,0,5.25,5.25A5.25,5.25,0,0,0,860.26,903Z"/><path d="M897.65,903a5.25,5.25,0,1,0,5.25,5.25A5.25,5.25,0,0,0,897.65,903Z"/><circle cx="935.04" cy="908.29" r="5.25"/><path d="M972.43,903a5.25,5.25,0,1,0,5.25,5.25A5.26,5.26,0,0,0,972.43,903Z"/><path d="M1009.83,903a5.25,5.25,0,1,0,5.25,5.25A5.25,5.25,0,0,0,1009.83,903Z"/><path d="M1047.22,903a5.25,5.25,0,1,0,5.25,5.25A5.25,5.25,0,0,0,1047.22,903Z"/><path d="M1084.61,903a5.25,5.25,0,1,0,5.25,5.25A5.25,5.25,0,0,0,1084.61,903Z"/><path d="M1116.75,908.29a5.25,5.25,0,0,0,5.25,5.25V903A5.25,5.25,0,0,0,1116.75,908.29Z"/><path d="M.26,742.75a2.3,2.3,0,0,0-.26,0v10.44a2.3,2.3,0,0,0,.26,0,5.25,5.25,0,0,0,0-10.5Z"/><path d="M37.65,742.75A5.25,5.25,0,1,0,42.9,748,5.25,5.25,0,0,0,37.65,742.75Z"/><path d="M75,742.75A5.25,5.25,0,1,0,80.29,748,5.25,5.25,0,0,0,75,742.75Z"/><path d="M112.43,742.75a5.25,5.25,0,1,0,5.25,5.25A5.25,5.25,0,0,0,112.43,742.75Z"/><path d="M149.82,742.75a5.25,5.25,0,1,0,5.25,5.25A5.26,5.26,0,0,0,149.82,742.75Z"/><path d="M187.22,742.75a5.25,5.25,0,1,0,5.25,5.25A5.25,5.25,0,0,0,187.22,742.75Z"/><path d="M224.61,742.75a5.25,5.25,0,1,0,5.25,5.25A5.25,5.25,0,0,0,224.61,742.75Z"/><path d="M262,742.75a5.25,5.25,0,1,0,5.25,5.25A5.25,5.25,0,0,0,262,742.75Z"/><path d="M299.39,742.75a5.25,5.25,0,1,0,5.25,5.25A5.25,5.25,0,0,0,299.39,742.75Z"/><path d="M336.78,742.75A5.25,5.25,0,1,0,342,748,5.25,5.25,0,0,0,336.78,742.75Z"/><path d="M374.17,742.75a5.25,5.25,0,1,0,5.25,5.25A5.25,5.25,0,0,0,374.17,742.75Z"/><path d="M411.56,742.75a5.25,5.25,0,1,0,5.25,5.25A5.25,5.25,0,0,0,411.56,742.75Z"/><path d="M449,742.75a5.25,5.25,0,1,0,5.25,5.25A5.25,5.25,0,0,0,449,742.75Z"/><path d="M486.35,742.75A5.25,5.25,0,1,0,491.6,748,5.25,5.25,0,0,0,486.35,742.75Z"/><path d="M523.74,742.75A5.25,5.25,0,1,0,529,748,5.25,5.25,0,0,0,523.74,742.75Z"/><path d="M561.13,742.75a5.25,5.25,0,1,0,5.25,5.25A5.25,5.25,0,0,0,561.13,742.75Z"/><path d="M598.52,742.75a5.25,5.25,0,1,0,5.25,5.25A5.25,5.25,0,0,0,598.52,742.75Z"/><path d="M635.91,742.75a5.25,5.25,0,1,0,5.25,5.25A5.25,5.25,0,0,0,635.91,742.75Z"/><path d="M673.3,742.75a5.25,5.25,0,1,0,5.25,5.25A5.25,5.25,0,0,0,673.3,742.75Z"/><path d="M710.69,742.75a5.25,5.25,0,1,0,5.25,5.25A5.25,5.25,0,0,0,710.69,742.75Z"/><path d="M748.09,742.75a5.25,5.25,0,1,0,5.25,5.25A5.25,5.25,0,0,0,748.09,742.75Z"/><path d="M785.48,742.75a5.25,5.25,0,1,0,5.25,5.25A5.25,5.25,0,0,0,785.48,742.75Z"/><path d="M822.87,742.75a5.25,5.25,0,1,0,5.25,5.25A5.25,5.25,0,0,0,822.87,742.75Z"/><path d="M860.26,742.75a5.25,5.25,0,1,0,5.25,5.25A5.25,5.25,0,0,0,860.26,742.75Z"/><path d="M897.65,742.75A5.25,5.25,0,1,0,902.9,748,5.25,5.25,0,0,0,897.65,742.75Z"/><path d="M935,742.75a5.25,5.25,0,1,0,5.25,5.25A5.25,5.25,0,0,0,935,742.75Z"/><path d="M972.43,742.75a5.25,5.25,0,1,0,5.25,5.25A5.26,5.26,0,0,0,972.43,742.75Z"/><path d="M1009.83,742.75a5.25,5.25,0,1,0,5.25,5.25A5.25,5.25,0,0,0,1009.83,742.75Z"/><path d="M1047.22,742.75a5.25,5.25,0,1,0,5.25,5.25A5.25,5.25,0,0,0,1047.22,742.75Z"/><path d="M1084.61,742.75a5.25,5.25,0,1,0,5.25,5.25A5.25,5.25,0,0,0,1084.61,742.75Z"/><path d="M1116.75,748a5.25,5.25,0,0,0,5.25,5.25v-10.5A5.25,5.25,0,0,0,1116.75,748Z"/><path d="M.26,796.18l-.26,0v10.45a2.3,2.3,0,0,0,.26,0,5.25,5.25,0,0,0,0-10.5Z"/><path d="M37.65,796.18a5.25,5.25,0,1,0,5.25,5.25A5.25,5.25,0,0,0,37.65,796.18Z"/><path d="M75,796.18a5.25,5.25,0,1,0,5.25,5.25A5.25,5.25,0,0,0,75,796.18Z"/><path d="M112.43,796.18a5.25,5.25,0,1,0,5.25,5.25A5.25,5.25,0,0,0,112.43,796.18Z"/><path d="M149.82,796.18a5.25,5.25,0,1,0,5.25,5.25A5.26,5.26,0,0,0,149.82,796.18Z"/><path d="M187.22,796.18a5.25,5.25,0,1,0,5.25,5.25A5.25,5.25,0,0,0,187.22,796.18Z"/><path d="M224.61,796.18a5.25,5.25,0,1,0,5.25,5.25A5.25,5.25,0,0,0,224.61,796.18Z"/><path d="M262,796.18a5.25,5.25,0,1,0,5.25,5.25A5.25,5.25,0,0,0,262,796.18Z"/><path d="M299.39,796.18a5.25,5.25,0,1,0,5.25,5.25A5.25,5.25,0,0,0,299.39,796.18Z"/><path d="M336.78,796.18a5.25,5.25,0,1,0,5.25,5.25A5.25,5.25,0,0,0,336.78,796.18Z"/><path d="M374.17,796.18a5.25,5.25,0,1,0,5.25,5.25A5.25,5.25,0,0,0,374.17,796.18Z"/><path d="M411.56,796.18a5.25,5.25,0,1,0,5.25,5.25A5.25,5.25,0,0,0,411.56,796.18Z"/><path d="M449,796.18a5.25,5.25,0,1,0,5.25,5.25A5.25,5.25,0,0,0,449,796.18Z"/><path d="M486.35,796.18a5.25,5.25,0,1,0,5.25,5.25A5.25,5.25,0,0,0,486.35,796.18Z"/><path d="M523.74,796.18a5.25,5.25,0,1,0,5.25,5.25A5.25,5.25,0,0,0,523.74,796.18Z"/><path d="M561.13,796.18a5.25,5.25,0,1,0,5.25,5.25A5.25,5.25,0,0,0,561.13,796.18Z"/><path d="M598.52,796.18a5.25,5.25,0,1,0,5.25,5.25A5.25,5.25,0,0,0,598.52,796.18Z"/><path d="M635.91,796.18a5.25,5.25,0,1,0,5.25,5.25A5.25,5.25,0,0,0,635.91,796.18Z"/><path d="M673.3,796.18a5.25,5.25,0,1,0,5.25,5.25A5.25,5.25,0,0,0,673.3,796.18Z"/><path d="M710.69,796.18a5.25,5.25,0,1,0,5.25,5.25A5.25,5.25,0,0,0,710.69,796.18Z"/><path d="M748.09,796.18a5.25,5.25,0,1,0,5.25,5.25A5.25,5.25,0,0,0,748.09,796.18Z"/><path d="M785.48,796.18a5.25,5.25,0,1,0,5.25,5.25A5.25,5.25,0,0,0,785.48,796.18Z"/><path d="M822.87,796.18a5.25,5.25,0,1,0,5.25,5.25A5.25,5.25,0,0,0,822.87,796.18Z"/><path d="M860.26,796.18a5.25,5.25,0,1,0,5.25,5.25A5.25,5.25,0,0,0,860.26,796.18Z"/><path d="M897.65,796.18a5.25,5.25,0,1,0,5.25,5.25A5.25,5.25,0,0,0,897.65,796.18Z"/><path d="M935,796.18a5.25,5.25,0,1,0,5.25,5.25A5.25,5.25,0,0,0,935,796.18Z"/><path d="M972.43,796.18a5.25,5.25,0,1,0,5.25,5.25A5.26,5.26,0,0,0,972.43,796.18Z"/><path d="M1009.83,796.18a5.25,5.25,0,1,0,5.25,5.25A5.25,5.25,0,0,0,1009.83,796.18Z"/><path d="M1047.22,796.18a5.25,5.25,0,1,0,5.25,5.25A5.25,5.25,0,0,0,1047.22,796.18Z"/><path d="M1084.61,796.18a5.25,5.25,0,1,0,5.25,5.25A5.25,5.25,0,0,0,1084.61,796.18Z"/><path d="M1116.75,801.43a5.25,5.25,0,0,0,5.25,5.25v-10.5A5.25,5.25,0,0,0,1116.75,801.43Z"/><path d="M5.51,1068.57a5.25,5.25,0,0,0-5.25-5.25,2.3,2.3,0,0,0-.26,0v10.45l.26,0A5.25,5.25,0,0,0,5.51,1068.57Z"/><path d="M37.65,1073.82a5.25,5.25,0,1,0-5.25-5.25A5.25,5.25,0,0,0,37.65,1073.82Z"/><path d="M75,1073.82a5.25,5.25,0,1,0-5.25-5.25A5.25,5.25,0,0,0,75,1073.82Z"/><path d="M112.43,1073.82a5.25,5.25,0,1,0-5.25-5.25A5.25,5.25,0,0,0,112.43,1073.82Z"/><path d="M149.82,1073.82a5.25,5.25,0,1,0-5.25-5.25A5.25,5.25,0,0,0,149.82,1073.82Z"/><path d="M187.22,1073.82a5.25,5.25,0,1,0-5.25-5.25A5.25,5.25,0,0,0,187.22,1073.82Z"/><path d="M224.61,1073.82a5.25,5.25,0,1,0-5.25-5.25A5.25,5.25,0,0,0,224.61,1073.82Z"/><path d="M262,1073.82a5.25,5.25,0,1,0-5.25-5.25A5.25,5.25,0,0,0,262,1073.82Z"/><path d="M299.39,1073.82a5.25,5.25,0,1,0-5.25-5.25A5.25,5.25,0,0,0,299.39,1073.82Z"/><path d="M336.78,1073.82a5.25,5.25,0,1,0-5.25-5.25A5.25,5.25,0,0,0,336.78,1073.82Z"/><path d="M374.17,1073.82a5.25,5.25,0,1,0-5.25-5.25A5.25,5.25,0,0,0,374.17,1073.82Z"/><path d="M411.56,1073.82a5.25,5.25,0,1,0-5.25-5.25A5.25,5.25,0,0,0,411.56,1073.82Z"/><path d="M449,1073.82a5.25,5.25,0,1,0-5.25-5.25A5.26,5.26,0,0,0,449,1073.82Z"/><path d="M486.35,1073.82a5.25,5.25,0,1,0-5.25-5.25A5.25,5.25,0,0,0,486.35,1073.82Z"/><path d="M523.74,1073.82a5.25,5.25,0,1,0-5.25-5.25A5.25,5.25,0,0,0,523.74,1073.82Z"/><path d="M561.13,1073.82a5.25,5.25,0,1,0-5.25-5.25A5.25,5.25,0,0,0,561.13,1073.82Z"/><path d="M598.52,1073.82a5.25,5.25,0,1,0-5.25-5.25A5.25,5.25,0,0,0,598.52,1073.82Z"/><path d="M635.91,1073.82a5.25,5.25,0,1,0-5.25-5.25A5.25,5.25,0,0,0,635.91,1073.82Z"/><path d="M673.3,1073.82a5.25,5.25,0,1,0-5.25-5.25A5.25,5.25,0,0,0,673.3,1073.82Z"/><path d="M710.69,1073.82a5.25,5.25,0,1,0-5.24-5.25A5.25,5.25,0,0,0,710.69,1073.82Z"/><path d="M748.09,1073.82a5.25,5.25,0,1,0-5.25-5.25A5.25,5.25,0,0,0,748.09,1073.82Z"/><path d="M785.48,1073.82a5.25,5.25,0,1,0-5.25-5.25A5.25,5.25,0,0,0,785.48,1073.82Z"/><path d="M822.87,1073.82a5.25,5.25,0,1,0-5.25-5.25A5.25,5.25,0,0,0,822.87,1073.82Z"/><path d="M860.26,1073.82a5.25,5.25,0,1,0-5.25-5.25A5.25,5.25,0,0,0,860.26,1073.82Z"/><path d="M897.65,1073.82a5.25,5.25,0,1,0-5.25-5.25A5.25,5.25,0,0,0,897.65,1073.82Z"/><path d="M935,1073.82a5.25,5.25,0,1,0-5.25-5.25A5.25,5.25,0,0,0,935,1073.82Z"/><path d="M972.43,1073.82a5.25,5.25,0,1,0-5.25-5.25A5.25,5.25,0,0,0,972.43,1073.82Z"/><path d="M1009.83,1073.82a5.25,5.25,0,1,0-5.25-5.25A5.25,5.25,0,0,0,1009.83,1073.82Z"/><path d="M1047.22,1073.82a5.25,5.25,0,1,0-5.25-5.25A5.25,5.25,0,0,0,1047.22,1073.82Z"/><path d="M1084.61,1073.82a5.25,5.25,0,1,0-5.25-5.25A5.25,5.25,0,0,0,1084.61,1073.82Z"/><path d="M1122,1073.82v-10.5a5.25,5.25,0,0,0,0,10.5Z"/><path d="M.26,1116.75a2.3,2.3,0,0,0-.26,0V1122H5.51A5.25,5.25,0,0,0,.26,1116.75Z"/><path d="M37.65,1116.75A5.25,5.25,0,0,0,32.4,1122H42.9A5.25,5.25,0,0,0,37.65,1116.75Z"/><path d="M75,1116.75a5.25,5.25,0,0,0-5.25,5.25h10.5A5.25,5.25,0,0,0,75,1116.75Z"/><path d="M112.43,1116.75a5.25,5.25,0,0,0-5.25,5.25h10.5A5.25,5.25,0,0,0,112.43,1116.75Z"/><path d="M149.82,1116.75a5.26,5.26,0,0,0-5.25,5.25h10.5A5.25,5.25,0,0,0,149.82,1116.75Z"/><path d="M187.22,1116.75A5.25,5.25,0,0,0,182,1122h10.5A5.25,5.25,0,0,0,187.22,1116.75Z"/><path d="M224.61,1116.75a5.25,5.25,0,0,0-5.25,5.25h10.5A5.25,5.25,0,0,0,224.61,1116.75Z"/><path d="M262,1116.75a5.25,5.25,0,0,0-5.25,5.25h10.5A5.25,5.25,0,0,0,262,1116.75Z"/><path d="M299.39,1116.75a5.25,5.25,0,0,0-5.25,5.25h10.5A5.25,5.25,0,0,0,299.39,1116.75Z"/><path d="M336.78,1116.75a5.25,5.25,0,0,0-5.25,5.25H342A5.25,5.25,0,0,0,336.78,1116.75Z"/><path d="M374.17,1116.75a5.25,5.25,0,0,0-5.25,5.25h10.5A5.25,5.25,0,0,0,374.17,1116.75Z"/><path d="M411.56,1116.75a5.25,5.25,0,0,0-5.25,5.25h10.5A5.25,5.25,0,0,0,411.56,1116.75Z"/><path d="M449,1116.75a5.25,5.25,0,0,0-5.25,5.25h10.5A5.26,5.26,0,0,0,449,1116.75Z"/><path d="M486.35,1116.75a5.25,5.25,0,0,0-5.25,5.25h10.5A5.25,5.25,0,0,0,486.35,1116.75Z"/><path d="M523.74,1116.75a5.25,5.25,0,0,0-5.25,5.25H529A5.25,5.25,0,0,0,523.74,1116.75Z"/><path d="M561.13,1116.75a5.25,5.25,0,0,0-5.25,5.25h10.5A5.25,5.25,0,0,0,561.13,1116.75Z"/><path d="M598.52,1116.75a5.25,5.25,0,0,0-5.25,5.25h10.5A5.25,5.25,0,0,0,598.52,1116.75Z"/><path d="M635.91,1116.75a5.25,5.25,0,0,0-5.25,5.25h10.5A5.25,5.25,0,0,0,635.91,1116.75Z"/><path d="M673.3,1116.75a5.25,5.25,0,0,0-5.25,5.25h10.5A5.25,5.25,0,0,0,673.3,1116.75Z"/><path d="M710.69,1116.75a5.25,5.25,0,0,0-5.24,5.25h10.49A5.25,5.25,0,0,0,710.69,1116.75Z"/><path d="M748.09,1116.75a5.25,5.25,0,0,0-5.25,5.25h10.5A5.25,5.25,0,0,0,748.09,1116.75Z"/><path d="M785.48,1116.75a5.25,5.25,0,0,0-5.25,5.25h10.5A5.25,5.25,0,0,0,785.48,1116.75Z"/><path d="M822.87,1116.75a5.25,5.25,0,0,0-5.25,5.25h10.5A5.25,5.25,0,0,0,822.87,1116.75Z"/><path d="M860.26,1116.75A5.25,5.25,0,0,0,855,1122h10.5A5.25,5.25,0,0,0,860.26,1116.75Z"/><path d="M897.65,1116.75a5.25,5.25,0,0,0-5.25,5.25h10.5A5.25,5.25,0,0,0,897.65,1116.75Z"/><path d="M935,1116.75a5.25,5.25,0,0,0-5.25,5.25h10.5A5.25,5.25,0,0,0,935,1116.75Z"/><path d="M972.43,1116.75a5.26,5.26,0,0,0-5.25,5.25h10.5A5.25,5.25,0,0,0,972.43,1116.75Z"/><path d="M1009.83,1116.75a5.25,5.25,0,0,0-5.25,5.25h10.5A5.25,5.25,0,0,0,1009.83,1116.75Z"/><path d="M1047.22,1116.75A5.25,5.25,0,0,0,1042,1122h10.5A5.25,5.25,0,0,0,1047.22,1116.75Z"/><path d="M1084.61,1116.75a5.25,5.25,0,0,0-5.25,5.25h10.5A5.25,5.25,0,0,0,1084.61,1116.75Z"/><path d="M1122,1116.75a5.25,5.25,0,0,0-5.25,5.25H1122Z"/><path d="M.26,956.46c-.09,0-.17,0-.26,0v10.45l.26,0a5.25,5.25,0,0,0,0-10.5Z"/><path d="M37.65,956.46a5.25,5.25,0,1,0,5.25,5.25A5.25,5.25,0,0,0,37.65,956.46Z"/><path d="M75,956.46a5.25,5.25,0,1,0,5.25,5.25A5.25,5.25,0,0,0,75,956.46Z"/><path d="M112.43,956.46a5.25,5.25,0,1,0,5.25,5.25A5.25,5.25,0,0,0,112.43,956.46Z"/><path d="M149.82,956.46a5.25,5.25,0,1,0,5.25,5.25A5.26,5.26,0,0,0,149.82,956.46Z"/><path d="M187.22,956.46a5.25,5.25,0,1,0,5.25,5.25A5.25,5.25,0,0,0,187.22,956.46Z"/><path d="M224.61,956.46a5.25,5.25,0,1,0,5.25,5.25A5.25,5.25,0,0,0,224.61,956.46Z"/><path d="M262,956.46a5.25,5.25,0,1,0,5.25,5.25A5.25,5.25,0,0,0,262,956.46Z"/><path d="M299.39,956.46a5.25,5.25,0,1,0,5.25,5.25A5.25,5.25,0,0,0,299.39,956.46Z"/><path d="M336.78,956.46a5.25,5.25,0,1,0,5.25,5.25A5.25,5.25,0,0,0,336.78,956.46Z"/><path d="M374.17,956.46a5.25,5.25,0,1,0,5.25,5.25A5.25,5.25,0,0,0,374.17,956.46Z"/><path d="M411.56,956.46a5.25,5.25,0,1,0,5.25,5.25A5.25,5.25,0,0,0,411.56,956.46Z"/><path d="M449,956.46a5.25,5.25,0,1,0,5.25,5.25A5.25,5.25,0,0,0,449,956.46Z"/><path d="M486.35,956.46a5.25,5.25,0,1,0,5.25,5.25A5.25,5.25,0,0,0,486.35,956.46Z"/><path d="M523.74,956.46a5.25,5.25,0,1,0,5.25,5.25A5.25,5.25,0,0,0,523.74,956.46Z"/><path d="M561.13,956.46a5.25,5.25,0,1,0,5.25,5.25A5.25,5.25,0,0,0,561.13,956.46Z"/><path d="M598.52,956.46a5.25,5.25,0,1,0,5.25,5.25A5.25,5.25,0,0,0,598.52,956.46Z"/><path d="M635.91,956.46a5.25,5.25,0,1,0,5.25,5.25A5.25,5.25,0,0,0,635.91,956.46Z"/><path d="M673.3,956.46a5.25,5.25,0,1,0,5.25,5.25A5.25,5.25,0,0,0,673.3,956.46Z"/><path d="M710.69,956.46a5.25,5.25,0,1,0,5.25,5.25A5.25,5.25,0,0,0,710.69,956.46Z"/><path d="M748.09,956.46a5.25,5.25,0,1,0,5.25,5.25A5.25,5.25,0,0,0,748.09,956.46Z"/><path d="M785.48,956.46a5.25,5.25,0,1,0,5.25,5.25A5.25,5.25,0,0,0,785.48,956.46Z"/><path d="M822.87,956.46a5.25,5.25,0,1,0,5.25,5.25A5.25,5.25,0,0,0,822.87,956.46Z"/><path d="M860.26,956.46a5.25,5.25,0,1,0,5.25,5.25A5.25,5.25,0,0,0,860.26,956.46Z"/><path d="M897.65,956.46a5.25,5.25,0,1,0,5.25,5.25A5.25,5.25,0,0,0,897.65,956.46Z"/><path d="M935,956.46a5.25,5.25,0,1,0,5.25,5.25A5.25,5.25,0,0,0,935,956.46Z"/><path d="M972.43,956.46a5.25,5.25,0,1,0,5.25,5.25A5.26,5.26,0,0,0,972.43,956.46Z"/><path d="M1009.83,956.46a5.25,5.25,0,1,0,5.25,5.25A5.25,5.25,0,0,0,1009.83,956.46Z"/><path d="M1047.22,956.46a5.25,5.25,0,1,0,5.25,5.25A5.25,5.25,0,0,0,1047.22,956.46Z"/><path d="M1084.61,956.46a5.25,5.25,0,1,0,5.25,5.25A5.25,5.25,0,0,0,1084.61,956.46Z"/><path d="M1116.75,961.71A5.25,5.25,0,0,0,1122,967v-10.5A5.25,5.25,0,0,0,1116.75,961.71Z"/><path d="M.26,1009.89a2.3,2.3,0,0,0-.26,0v10.45l.26,0a5.25,5.25,0,0,0,0-10.5Z"/><path d="M37.65,1009.89a5.25,5.25,0,1,0,5.25,5.25A5.25,5.25,0,0,0,37.65,1009.89Z"/><path d="M75,1009.89a5.25,5.25,0,1,0,5.25,5.25A5.25,5.25,0,0,0,75,1009.89Z"/><path d="M112.43,1009.89a5.25,5.25,0,1,0,5.25,5.25A5.25,5.25,0,0,0,112.43,1009.89Z"/><path d="M149.82,1009.89a5.25,5.25,0,1,0,5.25,5.25A5.26,5.26,0,0,0,149.82,1009.89Z"/><path d="M187.22,1009.89a5.25,5.25,0,1,0,5.25,5.25A5.25,5.25,0,0,0,187.22,1009.89Z"/><path d="M224.61,1009.89a5.25,5.25,0,1,0,5.25,5.25A5.25,5.25,0,0,0,224.61,1009.89Z"/><path d="M262,1009.89a5.25,5.25,0,1,0,5.25,5.25A5.25,5.25,0,0,0,262,1009.89Z"/><path d="M299.39,1009.89a5.25,5.25,0,1,0,5.25,5.25A5.25,5.25,0,0,0,299.39,1009.89Z"/><path d="M336.78,1009.89a5.25,5.25,0,1,0,5.25,5.25A5.25,5.25,0,0,0,336.78,1009.89Z"/><path d="M374.17,1009.89a5.25,5.25,0,1,0,5.25,5.25A5.25,5.25,0,0,0,374.17,1009.89Z"/><path d="M411.56,1009.89a5.25,5.25,0,1,0,5.25,5.25A5.25,5.25,0,0,0,411.56,1009.89Z"/><path d="M449,1009.89a5.25,5.25,0,1,0,5.25,5.25A5.25,5.25,0,0,0,449,1009.89Z"/><path d="M486.35,1009.89a5.25,5.25,0,1,0,5.25,5.25A5.25,5.25,0,0,0,486.35,1009.89Z"/><path d="M523.74,1009.89a5.25,5.25,0,1,0,5.25,5.25A5.25,5.25,0,0,0,523.74,1009.89Z"/><path d="M561.13,1009.89a5.25,5.25,0,1,0,5.25,5.25A5.25,5.25,0,0,0,561.13,1009.89Z"/><path d="M598.52,1009.89a5.25,5.25,0,1,0,5.25,5.25A5.25,5.25,0,0,0,598.52,1009.89Z"/><path d="M635.91,1009.89a5.25,5.25,0,1,0,5.25,5.25A5.25,5.25,0,0,0,635.91,1009.89Z"/><path d="M673.3,1009.89a5.25,5.25,0,1,0,5.25,5.25A5.25,5.25,0,0,0,673.3,1009.89Z"/><path d="M710.69,1009.89a5.25,5.25,0,1,0,5.25,5.25A5.25,5.25,0,0,0,710.69,1009.89Z"/><path d="M748.09,1009.89a5.25,5.25,0,1,0,5.25,5.25A5.25,5.25,0,0,0,748.09,1009.89Z"/><path d="M785.48,1009.89a5.25,5.25,0,1,0,5.25,5.25A5.25,5.25,0,0,0,785.48,1009.89Z"/><path d="M822.87,1009.89a5.25,5.25,0,1,0,5.25,5.25A5.25,5.25,0,0,0,822.87,1009.89Z"/><path d="M860.26,1009.89a5.25,5.25,0,1,0,5.25,5.25A5.25,5.25,0,0,0,860.26,1009.89Z"/><path d="M897.65,1009.89a5.25,5.25,0,1,0,5.25,5.25A5.25,5.25,0,0,0,897.65,1009.89Z"/><path d="M935,1009.89a5.25,5.25,0,1,0,5.25,5.25A5.25,5.25,0,0,0,935,1009.89Z"/><path d="M972.43,1009.89a5.25,5.25,0,1,0,5.25,5.25A5.26,5.26,0,0,0,972.43,1009.89Z"/><path d="M1009.83,1009.89a5.25,5.25,0,1,0,5.25,5.25A5.25,5.25,0,0,0,1009.83,1009.89Z"/><path d="M1047.22,1009.89a5.25,5.25,0,1,0,5.25,5.25A5.25,5.25,0,0,0,1047.22,1009.89Z"/><path d="M1084.61,1009.89a5.25,5.25,0,1,0,5.25,5.25A5.25,5.25,0,0,0,1084.61,1009.89Z"/><path d="M1116.75,1015.14a5.25,5.25,0,0,0,5.25,5.25v-10.5A5.25,5.25,0,0,0,1116.75,1015.14Z"/></svg>